<svg width="34" height="3" viewBox="0 0 34 3" fill="none" xmlns="http://www.w3.org/2000/svg">
<path d="M16.5315 2.68611C11.6186 2.68611 6.70571 2.68611 1.7928 2.68611C1.51149 2.68611 1.15816 2.7755 0.969112 2.6414C0.638285 2.40673 0.176927 2.01337 0.199432 1.71835C0.224188 1.36075 0.658539 0.989737 0.991617 0.717066C1.14465 0.591906 1.47998 0.679068 1.73204 0.679068C11.6434 0.679068 21.5524 0.679068 31.4638 0.679068C31.6888 0.679068 31.9814 0.598609 32.1232 0.708124C32.4652 0.97409 32.9108 1.2937 32.9919 1.66024C33.1111 2.20111 32.697 2.59 32.1142 2.6727C31.8666 2.70846 31.61 2.68834 31.358 2.68834C26.4158 2.68834 21.4759 2.68834 16.5338 2.68834L16.5315 2.68611Z" fill="#FD6F00"/>
</svg>
