<svg width="33" height="33" viewBox="0 0 33 33" fill="none" xmlns="http://www.w3.org/2000/svg">
<g clip-path="url(#clip0_1039_174)">
<path d="M10.7246 29.4304C22.9764 29.4304 29.6795 19.2774 29.6795 10.4755C29.6795 10.1901 29.6732 9.8983 29.6605 9.61287C30.9645 8.66987 32.0897 7.50184 32.9835 6.16365C31.7691 6.70395 30.4797 7.05683 29.1594 7.21021C30.5496 6.37691 31.5905 5.06784 32.0892 3.52567C30.7813 4.30073 29.3511 4.84747 27.8598 5.14245C26.8549 4.07476 25.5264 3.36782 24.0794 3.13093C22.6325 2.89405 21.1479 3.14041 19.855 3.83192C18.5622 4.52343 17.5331 5.62159 16.927 6.9566C16.3209 8.29161 16.1714 9.78912 16.5017 11.2176C13.8535 11.0847 11.2629 10.3968 8.89767 9.19846C6.53245 8.00011 4.44546 6.31809 2.77201 4.26143C1.92147 5.72786 1.6612 7.46313 2.04411 9.11455C2.42701 10.766 3.42435 12.2097 4.83343 13.1522C3.77557 13.1186 2.7409 12.8338 1.81488 12.3213V12.4037C1.81393 13.9426 2.34595 15.4344 3.32049 16.6254C4.29503 17.8164 5.65196 18.6331 7.16061 18.9368C6.18067 19.2049 5.15219 19.244 4.15474 19.051C4.58045 20.3745 5.40873 21.532 6.52398 22.3621C7.63924 23.1921 8.98581 23.6533 10.3758 23.6812C8.01602 25.5349 5.10103 26.5403 2.1003 26.5355C1.56815 26.5347 1.03652 26.5021 0.508255 26.4378C3.55667 28.3936 7.1028 29.4323 10.7246 29.4304Z" fill="black"/>
</g>
<defs>
<clipPath id="clip0_1039_174">
<rect width="32.4752" height="32.4752" fill="white" transform="translate(0.50827 -0.00012207)"/>
</clipPath>
</defs>
</svg>
